# WaveFront *.obj file (generated by CINEMA 4D)

mtllib ./Untitled_1.mtl

v -1.00000000000000 -1.00000000000000 -1.00000000000000
v -1.00000000000000 1.00000000000000 -1.00000000000000
v 1.00000000000000 -1.00000000000000 -1.00000000000000
v 1.00000000000000 1.00000000000000 -1.00000000000000
v 1.00000000000000 -1.00000000000000 1.00000000000000
v 1.00000000000000 1.00000000000000 1.00000000000000
v -1.00000000000000 -1.00000000000000 1.00000000000000
v -1.00000000000000 1.00000000000000 1.00000000000000
# 8 vertices

vn 0.00000000000000 0.00000000000000 -1.00000000000000
vn 0.00000000000000 0.00000000000000 0.00000000000000
vn 1.00000000000000 0.00000000000000 0.00000000000000
vn 0.00000000000000 0.00000000000000 1.00000000000000
vn 0.00000000000000 -0.00000000000000 1.00000000000000
vn -1.00000000000000 0.00000000000000 0.00000000000000
vn 0.00000000000000 1.00000000000000 0.00000000000000
vn 0.00000000000000 -1.00000000000000 0.00000000000000
# 8 normals

vt 0.00000000000000 -1.00000000000000 0.00000000000000
vt 0.00000000000000 -0.00000000000000 0.00000000000000
vt 1.00000000000000 -0.00000000000000 0.00000000000000
vt 1.00000000000000 -1.00000000000000 0.00000000000000
# 4 texture coordinates

o Cube
usemtl default
f 1/1/1 2/2/1 4/3/1
f 3/1/3 4/2/3 6/3/3
f 5/1/4 6/2/5 8/3/4
f 7/1/6 8/2/6 2/3/6
f 2/1/7 8/2/7 6/3/7
f 7/1/8 1/2/8 3/3/8
f 1/1/1 4/3/1 3/4/1
f 3/1/3 6/3/3 5/4/3
f 5/1/4 8/3/4 7/4/4
f 7/1/6 2/3/6 1/4/6
f 2/1/7 6/3/7 4/4/7
f 7/1/8 3/3/8 5/4/8

